# xmcd CD database file generated by libcdaudio 0.99.1
# 
# Track frame offsets:
#       900
#       21901
#       37802
#       54978
#       72004
#       96455
#       119706
#       138982
#       163133
# 
# Disc length: 2414 seconds
# 
# Revision: 0
# Processed by: cddbd v1.5.2PL0 Copyright (c) Steve Scherf et al.
# Submitted via: libcdaudio 0.99.1
# 
DISCID=7b096209
DTITLE=Spooky Tooth - The Mirror
DYEAR=1900
DGENRE=
TTITLE0=Fantasy Satisfier
TTITLE1=Two Time Love
TTITLE2=Kyle
TTITLE3=Women And Gold
TTITLE4=Higher Circles
TTITLE5=Hell Or High Water
TTITLE6=I'm Alive
TTITLE7=The Mirror
TTITLE8=The Hoofer
EXTD=
EXTT0=
EXTT1=
EXTT2=
EXTT3=
EXTT4=
EXTT5=
EXTT6=
EXTT7=
EXTT8=
PLAYORDER=
